<?xml version="1.0" standalone="no"?>
<!DOCTYPE svg PUBLIC "-//W3C//DTD SVG 20010904//EN"
 "http://www.w3.org/TR/2001/REC-SVG-20010904/DTD/svg10.dtd">
<svg version="1.0" xmlns="http://www.w3.org/2000/svg"
 width="500.000000pt" height="500.000000pt" viewBox="0 0 500.000000 500.000000"
 preserveAspectRatio="xMidYMid meet">
<metadata>
Created by potrace 1.14, written by Peter Selinger 2001-2017
</metadata>
<g transform="translate(0.000000,500.000000) scale(0.100000,-0.100000)"
fill="#000000" stroke="none">
<path d="M0 2500 l0 -2500 2500 0 2500 0 0 2500 0 2500 -2500 0 -2500 0 0
-2500z m2660 1475 c28 -15 60 -51 60 -68 0 -14 -59 0 -76 18 -25 25 -79 19
-103 -11 -43 -55 -11 -134 54 -134 32 0 65 21 65 40 0 5 -17 10 -37 12 -27 2
-39 8 -41 21 -3 15 5 17 67 17 l71 0 0 -30 c0 -20 -11 -42 -33 -66 -58 -64
-152 -55 -197 19 -68 110 55 242 170 182z m-312 -25 c17 -11 32 -24 32 -29 0
-16 -54 -20 -74 -5 -28 19 -49 18 -80 -7 -21 -16 -26 -29 -26 -64 0 -35 5 -48
26 -64 15 -12 36 -21 48 -21 30 0 66 27 66 50 0 15 -6 17 -40 13 -35 -5 -40
-3 -40 14 0 17 10 21 65 29 36 6 68 8 70 5 10 -10 4 -55 -12 -88 -23 -50 -91
-80 -144 -64 -101 30 -128 158 -48 226 39 32 109 34 157 5z m568 -16 c50 -13
64 -20 62 -33 -4 -17 -25 -19 -69 -7 -23 7 -28 4 -37 -23 -12 -34 -11 -36 36
-46 23 -5 32 -12 32 -27 0 -20 -9 -21 -71 -2 -11 3 -19 -3 -23 -18 -10 -41 -7
-47 34 -58 30 -8 40 -16 40 -32 0 -16 -4 -19 -22 -14 -13 4 -44 12 -70 18 -32
8 -48 17 -48 27 0 9 14 63 30 121 17 58 30 106 30 107 0 5 10 3 76 -13z m-888
-72 c74 -48 68 -178 -10 -218 -72 -37 -146 -13 -182 60 -57 115 82 230 192
158z m1132 -17 c75 -38 98 -85 65 -132 -8 -12 -29 -24 -46 -28 -31 -7 -31 -7
-27 -61 5 -56 0 -61 -33 -44 -13 8 -19 21 -19 48 0 44 -9 82 -20 82 -4 0 -15
-18 -25 -40 -18 -40 -29 -47 -53 -32 -9 7 0 36 39 120 29 62 56 112 61 112 5
0 31 -11 58 -25z m-1458 -212 l54 -82 32 20 c30 20 52 19 52 -1 0 -5 -23 -25
-52 -44 l-52 -35 -70 105 c-67 101 -69 107 -51 120 22 17 18 21 87 -83z m1742
52 c69 -64 1 -154 -119 -155 l-30 -1 38 -32 c27 -23 36 -38 31 -50 -3 -9 -8
-17 -10 -17 -3 0 -36 23 -74 52 -88 66 -84 83 19 90 102 8 152 50 105 89 -13
10 -19 10 -36 0 -17 -11 -23 -10 -36 3 -13 12 -13 18 -2 30 20 25 83 20 114
-9z m-1899 -105 c10 -11 16 -29 13 -43 -4 -20 -1 -23 23 -19 18 3 34 -3 48
-17 34 -34 27 -66 -31 -127 -28 -30 -54 -53 -57 -52 -4 2 -45 43 -91 91 l-84
89 51 49 c57 55 97 64 128 29z m2082 -80 c-1 -3 -42 -43 -90 -90 -82 -78 -89
-82 -105 -67 -15 16 -12 22 58 92 58 58 72 77 62 87 -9 9 -8 16 5 31 17 18 18
17 45 -15 15 -18 26 -35 25 -38z m-674 -289 c37 -12 67 -26 67 -31 0 -13 3
-13 -66 10 -328 113 -876 -46 -1083 -314 l-43 -55 60 -98 c33 -54 96 -159 142
-233 156 -257 237 -447 247 -585 8 -109 -25 -182 -101 -222 l-31 -16 50 -14
c246 -64 734 -4 970 120 72 38 145 108 176 168 28 55 36 158 20 250 -13 68
-72 199 -130 283 -45 65 -127 235 -155 322 -28 85 -66 278 -65 328 0 17 13
-34 29 -113 16 -79 39 -174 51 -210 28 -85 105 -239 181 -364 76 -124 108
-214 115 -326 4 -72 2 -95 -16 -143 -69 -180 -291 -291 -692 -344 -149 -19
-402 -14 -489 10 -30 9 -82 15 -115 15 -150 -2 -242 94 -338 351 -19 52 -45
131 -56 175 -12 44 -26 88 -32 98 -7 13 -4 41 11 100 12 45 23 94 25 109 2 15
10 38 16 50 7 13 14 31 16 40 5 32 72 154 95 174 18 15 20 15 9 2 -12 -16 -8
-24 32 -68 157 -175 299 -513 314 -750 5 -73 3 -93 -15 -133 -15 -33 -28 -48
-47 -53 -108 -27 -292 218 -399 531 -24 70 -36 95 -41 82 -16 -38 72 -326 146
-482 73 -154 180 -232 281 -205 154 41 198 140 148 333 -37 145 -109 291 -293
587 -50 79 -100 168 -113 196 l-23 53 70 75 c139 149 337 254 579 307 124 27
396 22 493 -10z m-143 -91 c7 -14 7 -20 0 -20 -5 0 -10 5 -10 10 0 16 -47 12
-64 -5 -40 -40 -26 -88 24 -79 20 5 34 0 49 -15 27 -27 27 -35 -6 -71 -35 -38
-91 -50 -116 -25 -18 18 -23 45 -8 45 5 0 11 -9 14 -20 9 -34 80 -20 106 21
18 30 -3 53 -41 45 -39 -8 -72 25 -63 62 13 59 92 94 115 52z m-190 -54 c0
-77 -12 -176 -21 -176 -4 0 -20 18 -36 40 -15 22 -31 40 -35 40 -3 0 -15 -26
-25 -57 -11 -32 -23 -58 -28 -58 -9 0 -44 163 -44 205 0 23 1 23 8 5 5 -11 14
-52 21 -92 7 -40 16 -70 20 -68 4 3 13 25 19 50 6 25 17 45 24 45 6 -1 24 -16
39 -36 l26 -35 7 96 c8 102 25 130 25 41z m-241 -53 c51 -47 45 -63 -34 -103
-38 -19 -72 -37 -75 -38 -10 -7 43 -42 64 -42 12 0 32 9 45 21 27 25 41 17 17
-10 -45 -50 -125 -28 -156 43 -24 53 -18 95 18 131 34 35 82 34 121 -2z m-201
-136 c37 -98 48 -137 40 -137 -2 0 -41 7 -88 15 -133 23 -133 24 -60 -50 35
-36 60 -65 55 -65 -14 1 -171 148 -164 154 2 3 56 -3 119 -13 63 -10 116 -18
118 -16 2 1 -15 48 -38 104 -41 104 -46 121 -32 121 4 0 26 -51 50 -113z
m-1004 -116 c-81 -322 -39 -675 117 -970 47 -89 56 -123 25 -90 -25 25 -103
191 -134 286 -53 158 -67 248 -67 448 0 112 5 203 13 240 25 115 45 175 56
175 9 0 5 -27 -10 -89z m2682 38 c52 -175 63 -467 25 -649 -26 -123 -77 -265
-133 -370 -44 -84 -52 -94 -66 -89 -6 2 6 31 25 64 53 88 111 236 139 351 54
224 46 487 -22 723 -5 17 -3 22 6 19 7 -2 19 -24 26 -49z m-871 -44 c-45 -19
-81 -29 -72 -19 11 11 67 32 87 32 8 0 2 -5 -15 -13z m-139 -114 c19 -52 31
-98 27 -102 -10 -10 -170 -69 -186 -69 -11 0 -87 192 -87 219 0 6 10 13 23 16
56 14 163 33 176 32 7 -1 28 -44 47 -96z m188 69 c-30 -11 -110 -23 -102 -15
10 10 102 33 112 27 5 -3 1 -8 -10 -12z m21 -49 c-13 -11 -74 -31 -94 -30 -9
0 7 9 34 19 57 21 74 24 60 11z m-565 -41 c0 -9 -39 -29 -248 -126 -40 -19
-70 -29 -66 -23 5 9 298 158 312 159 1 0 2 -5 2 -10z m30 -89 c0 -11 -258
-143 -272 -139 -6 2 52 36 128 76 156 80 144 75 144 63z m690 -56 c0 -8 -4
-15 -10 -15 -5 0 -10 7 -10 15 0 8 5 15 10 15 6 0 10 -7 10 -15z m-40 -15 c0
-5 -4 -10 -10 -10 -5 0 -10 5 -10 10 0 6 5 10 10 10 6 0 10 -4 10 -10z m-40
-15 c0 -8 -4 -15 -9 -15 -13 0 -22 16 -14 24 11 11 23 6 23 -9z m-560 -1 c0
-9 -270 -137 -276 -131 -7 6 244 136 264 136 6 1 12 -1 12 -5z m518 -15 c-2
-6 -8 -10 -13 -10 -5 0 -11 4 -13 10 -2 6 4 11 13 11 9 0 15 -5 13 -11z m-38
-20 c0 -5 -7 -9 -15 -9 -15 0 -20 12 -9 23 8 8 24 -1 24 -14z m-42 -10 c-2 -6
-8 -10 -13 -10 -5 0 -11 4 -13 10 -2 6 4 11 13 11 9 0 15 -5 13 -11z m-48 -19
c0 -5 -4 -10 -10 -10 -5 0 -10 5 -10 10 0 6 5 10 10 10 6 0 10 -4 10 -10z
m-38 -15 c0 -5 -5 -11 -11 -13 -6 -2 -11 4 -11 13 0 9 5 15 11 13 6 -2 11 -8
11 -13z m263 -4 c-6 -6 -48 -24 -95 -41 -103 -38 -95 -24 10 19 79 32 101 38
85 22z m-305 -11 c0 -5 -4 -10 -10 -10 -5 0 -10 5 -10 10 0 6 5 10 10 10 6 0
10 -4 10 -10z m-40 -15 c0 -8 -4 -15 -9 -15 -13 0 -22 16 -14 24 11 11 23 6
23 -9z m-40 -15 c0 -5 -7 -10 -15 -10 -8 0 -15 5 -15 10 0 6 7 10 15 10 8 0
15 -4 15 -10z m435 1 c-13 -12 -162 -71 -178 -70 -12 0 42 27 123 60 51 20 69
24 55 10z m-481 -22 c-3 -5 -10 -7 -15 -3 -5 3 -7 10 -3 15 3 5 10 7 15 3 5
-3 7 -10 3 -15z m-43 -12 c-1 -12 -15 -9 -19 4 -3 6 1 10 8 8 6 -3 11 -8 11
-12z m-40 -20 c-13 -13 -26 -3 -16 12 3 6 11 8 17 5 6 -4 6 -10 -1 -17z m-41
-12 c0 -8 -4 -15 -10 -15 -5 0 -10 7 -10 15 0 8 5 15 10 15 6 0 10 -7 10 -15z
m255 7 c-12 -10 -199 -92 -210 -92 -17 0 5 12 101 55 96 44 129 54 109 37z
m-295 -22 c0 -5 -4 -10 -10 -10 -5 0 -10 5 -10 10 0 6 5 10 10 10 6 0 10 -4
10 -10z m-40 -15 c0 -8 -4 -15 -9 -15 -13 0 -22 16 -14 24 11 11 23 6 23 -9z
m-40 -15 c0 -5 -7 -10 -15 -10 -8 0 -15 5 -15 10 0 6 7 10 15 10 8 0 15 -4 15
-10z m-49 -23 c-13 -13 -26 -3 -16 12 3 6 11 8 17 5 6 -4 6 -10 -1 -17z m394
-7 c-88 -41 -122 -46 -40 -6 39 19 77 35 85 34 8 0 -12 -12 -45 -28z m-425 0
c0 -5 -7 -10 -15 -10 -8 0 -15 5 -15 10 0 6 7 10 15 10 8 0 15 -4 15 -10z
m-49 -23 c-13 -13 -26 -3 -16 12 3 6 11 8 17 5 6 -4 6 -10 -1 -17z m878 9 c-8
-8 -371 -157 -375 -154 -4 5 348 157 365 158 8 0 12 -2 10 -4z m-919 -21 c0
-8 -4 -15 -10 -15 -5 0 -10 7 -10 15 0 8 5 15 10 15 6 0 10 -7 10 -15z m209
-8 c-14 -11 -231 -88 -235 -84 -4 4 155 70 216 89 14 5 28 1 19 -5z m-249 -7
c0 -5 -4 -10 -10 -10 -5 0 -10 5 -10 10 0 6 5 10 10 10 6 0 10 -4 10 -10z
m987 -17 c-6 -6 -338 -146 -377 -159 -47 -16 86 49 210 102 133 57 184 74 167
57z m-728 -27 c-11 -10 -203 -85 -207 -81 -3 2 6 9 19 14 13 5 60 26 104 45
43 19 81 33 84 31 2 -3 2 -7 0 -9z m736 -52 c-95 -41 -373 -148 -369 -143 2 4
70 35 152 69 81 34 156 65 167 70 11 5 29 9 40 9 11 -1 16 -3 10 -5z m-496
-132 c14 -56 22 -104 19 -107 -7 -7 -426 -41 -431 -34 -2 2 -2 39 1 81 l4 78
37 9 c171 42 328 78 336 77 5 -2 21 -48 34 -104z m480 34 c-8 -8 -312 -116
-316 -113 -5 6 280 116 301 117 11 0 17 -2 15 -4z m-1493 -497 c11 -19 -5 -22
-30 -5 -24 15 -26 15 -35 -3 -9 -15 -6 -22 12 -34 27 -18 14 -36 -14 -19 -16
10 -24 11 -35 1 -13 -10 -12 -15 7 -35 12 -13 19 -27 16 -30 -10 -10 -78 39
-73 53 3 6 24 36 47 66 l43 55 28 -19 c15 -11 30 -25 34 -30z m1513 13 c-20
-17 -22 -22 -10 -36 13 -15 15 -15 33 1 13 12 22 13 29 6 8 -8 4 -15 -12 -27
-22 -15 -22 -17 -6 -33 15 -16 18 -16 35 0 22 20 32 22 31 5 0 -7 -13 -24 -30
-36 -35 -28 -40 -25 -96 51 l-37 50 34 28 c22 19 38 25 44 19 6 -6 1 -16 -15
-28z m-1442 -67 c3 -9 1 -39 -5 -68 -6 -29 -9 -54 -7 -55 2 -2 24 15 49 38 33
31 49 39 61 33 13 -8 5 -19 -46 -61 -93 -79 -106 -72 -88 48 12 77 23 97 36
65z m1348 -29 c12 -19 14 -30 6 -44 -9 -17 -6 -22 19 -32 17 -7 30 -16 30 -20
0 -15 -26 -18 -51 -4 -39 22 -52 18 -33 -11 15 -22 13 -45 -5 -45 -7 0 -81
121 -81 134 0 10 63 46 82 46 10 0 25 -11 33 -24z m-1109 -91 c-2 -5 -10 -8
-17 -6 -8 2 -21 6 -30 8 -10 3 -18 -3 -22 -16 -4 -16 1 -23 19 -27 14 -4 23
-11 21 -18 -5 -11 -11 -12 -38 -1 -24 9 -35 -26 -13 -42 9 -7 22 -14 28 -16 6
-2 8 -8 4 -12 -5 -5 -26 -2 -49 5 -46 16 -46 20 -4 115 l24 54 40 -17 c22 -9
39 -21 37 -27z m938 36 c3 -4 -6 -13 -19 -19 -41 -19 -31 -58 11 -42 31 12 41
-5 12 -21 -30 -16 -29 -14 -22 -33 5 -13 14 -15 40 -10 48 9 43 -10 -8 -29
-23 -9 -42 -16 -43 -14 -9 15 -55 131 -55 138 0 6 15 16 33 24 38 17 44 18 51
6z m-796 -77 c29 -19 27 -64 -4 -79 -16 -8 -19 -15 -13 -30 12 -31 10 -45 -6
-45 -8 0 -19 17 -26 40 -12 40 -29 45 -29 9 0 -19 -25 -37 -36 -26 -4 4 17
104 32 146 5 15 46 8 82 -15z m669 -46 c14 -50 17 -75 10 -80 -16 -10 -25 -1
-32 32 -6 26 -10 29 -33 24 -40 -10 -41 -12 -32 -43 4 -16 6 -32 2 -35 -17
-18 -30 2 -45 67 -21 87 -21 87 -3 87 8 0 17 -13 21 -30 7 -31 14 -34 53 -24
19 6 22 11 16 40 -5 26 -3 34 9 34 10 0 21 -23 34 -72z m-543 -6 c11 -40 20
-40 36 -2 8 18 20 30 31 30 25 0 24 -4 -11 -55 -16 -24 -30 -55 -30 -69 0 -19
-5 -26 -20 -26 -16 0 -19 5 -15 23 4 13 -3 46 -14 75 -25 64 -25 64 -4 60 10
-2 21 -18 27 -36z m272 -17 c10 -30 21 -52 24 -50 4 3 10 27 14 55 5 34 11 50
21 50 17 0 19 -20 6 -70 -5 -19 -12 -47 -15 -62 -11 -49 -42 -36 -62 25 -19
57 -17 60 -38 -35 -4 -18 -13 -28 -25 -28 -14 0 -25 18 -45 76 -15 42 -25 78
-22 81 14 14 35 -11 47 -56 7 -27 16 -48 20 -45 4 2 10 26 14 53 5 34 12 51
23 54 10 3 18 5 19 6 1 0 10 -24 19 -54z"/>
<path d="M1912 3824 c-36 -25 -45 -50 -32 -89 21 -63 75 -82 124 -44 42 33 31
115 -21 138 -32 15 -44 14 -71 -5z"/>
<path d="M3110 3779 c-15 -36 -4 -49 42 -49 38 0 49 37 18 62 -32 26 -46 23
-60 -13z"/>
<path d="M1451 3530 l-24 -21 23 -24 24 -25 23 22 c48 45 5 90 -46 48z"/>
<path d="M1527 3457 l-28 -22 26 -25 26 -24 27 27 c22 22 25 31 16 45 -16 25
-35 25 -67 -1z"/>
<path d="M1790 2695 c0 -3 23 -40 52 -82 158 -235 286 -644 225 -720 -33 -43
-110 19 -190 155 -53 90 -141 287 -158 357 -6 25 -15 48 -20 51 -19 11 -8 -78
19 -158 68 -198 162 -368 256 -465 86 -87 133 -95 161 -28 55 129 -57 519
-218 760 -56 85 -127 157 -127 130z"/>
<path d="M1767 2662 c-3 -4 11 -34 30 -67 78 -132 191 -415 196 -491 1 -29 -2
-39 -15 -42 -32 -6 -144 191 -222 394 -29 76 -35 85 -44 67 -6 -11 -9 -23 -6
-26 3 -3 23 -57 44 -120 83 -247 240 -502 297 -480 27 10 12 167 -27 288 -46
141 -118 299 -184 399 -56 87 -61 92 -69 78z"/>
<path d="M1745 2598 c-6 -37 0 -60 34 -146 65 -164 183 -384 197 -369 18 18
-81 281 -171 455 l-54 104 -6 -44z"/>
<path d="M2277 3008 c-33 -26 -46 -118 -16 -118 20 0 139 65 139 76 0 20 -50
54 -79 54 -15 0 -35 -6 -44 -12z"/>
<path d="M2725 2710 c-16 -4 -24 -8 -17 -9 9 -1 7 -12 -8 -41 -11 -22 -18 -40
-15 -40 2 0 14 18 25 41 24 46 36 48 20 3 l-10 -29 20 25 19 25 -4 -32 c-2
-18 -13 -46 -24 -62 -12 -16 -21 -33 -21 -37 0 -4 14 11 30 34 31 41 31 41 51
21 11 -11 25 -17 31 -13 8 5 9 1 4 -11 -5 -15 -4 -16 8 -6 13 11 12 20 -8 74
-25 67 -37 74 -101 57z"/>
<path d="M2638 2693 c-21 -5 -23 -38 -4 -71 12 -23 13 -23 27 15 15 37 15 64
1 62 -4 -1 -15 -3 -24 -6z m32 -16 c0 -2 -10 -12 -22 -23 l-23 -19 19 23 c18
21 26 27 26 19z"/>
<path d="M2675 2591 c-3 -6 -11 -9 -16 -6 -12 8 -11 5 3 -36 l12 -34 7 40 c7
42 5 53 -6 36z"/>
<path d="M2846 2561 c-4 -7 -5 -15 -2 -18 9 -9 19 4 14 18 -4 11 -6 11 -12 0z"/>
<path d="M2747 2543 c-32 -5 -73 -41 -60 -53 9 -9 143 39 143 51 0 9 -31 10
-83 2z"/>
<path d="M2727 1981 c-10 -4 -37 -35 -59 -70 -45 -71 -36 -74 14 -5 37 52 51
42 17 -13 l-22 -38 31 35 c33 37 43 31 15 -10 -16 -25 -16 -25 3 -7 22 19 39
23 29 7 -3 -5 3 -10 14 -10 24 0 24 0 8 64 -14 52 -21 59 -50 47z"/>
<path d="M2646 1931 c-36 -56 -33 -63 5 -12 17 24 28 45 25 48 -2 3 -16 -13
-30 -36z"/>
<path d="M2585 1912 c-16 -26 -30 -56 -30 -67 0 -16 -7 -20 -37 -20 -20 0 -40
-4 -44 -8 -31 -30 -29 39 2 78 32 40 40 26 13 -21 -26 -45 -17 -38 31 25 34
43 34 44 10 38 -14 -4 -31 -7 -37 -7 -12 0 -47 -55 -48 -75 -1 -15 -15 -35
-26 -35 -6 0 -6 9 1 23 11 21 10 21 -4 3 -9 -11 -16 -32 -16 -48 0 -34 -11
-33 228 -10 95 9 172 20 172 25 0 4 0 17 0 30 -1 20 -2 20 -13 5 -11 -13 -27
-16 -81 -14 -37 1 -70 -2 -72 -6 -3 -4 -13 -2 -24 4 -26 16 -21 70 10 102 16
18 19 26 9 26 -8 0 -27 -21 -44 -48z m-5 -47 c-7 -9 -15 -13 -18 -10 -3 2 1
11 8 20 7 9 15 13 18 10 3 -2 -1 -11 -8 -20z"/>
<path d="M2556 1925 c-9 -14 -23 -37 -32 -52 l-16 -28 21 25 c41 48 62 80 53
80 -5 0 -17 -11 -26 -25z"/>
<path d="M2428 1913 c-19 -5 -24 -28 -8 -38 6 -4 7 1 3 11 -4 11 -2 15 4 11 6
-4 16 0 23 8 13 15 9 16 -22 8z"/>
<path d="M3141 1341 c-19 -12 -6 -43 16 -39 21 4 31 48 11 48 -7 0 -19 -4 -27
-9z"/>
<path d="M2180 1195 c0 -18 5 -25 19 -25 28 0 37 21 16 37 -27 19 -35 16 -35
-12z"/>
</g>
</svg>
